#N canvas 827 239 527 327 12;
#X obj 616 71 notein;
#X obj 616 119 stripnote;
#X obj 616 163 mtof;
#X obj 616 207 t f b;
#X msg 665 250 0 \, 1 10 0 \, 0 100 20, f 18;
#X obj 665 281 hv.vline~;
#X obj 818 250 / 127;
#X obj 616 320 *~;
#X obj 616 357 *~;
#X obj 616 442 dac~;
#X obj 787 313 r vol @hv_param 0 0.1 0;
#X obj 616 400 *~;
#X obj 790 345 hsl 128 17 0 0.1 0 0 empty empty empty -2 -8 0 10 #191919 #e1e1e1 #e1e1e1 0 1;
#X obj 570 281 osc~;
#X connect 0 0 1 0;
#X connect 0 1 1 1;
#X connect 1 0 2 0;
#X connect 1 1 6 0;
#X connect 2 0 3 0;
#X connect 3 0 13 0;
#X connect 3 1 4 0;
#X connect 4 0 5 0;
#X connect 5 0 7 1;
#X connect 6 0 8 1;
#X connect 7 0 8 0;
#X connect 8 0 11 0;
#X connect 10 0 12 0;
#X connect 11 0 9 0;
#X connect 11 0 9 1;
#X connect 12 0 11 1;
#X connect 13 0 7 0;
