#N canvas 827 239 527 327 12;
#X obj 338 137 notein;
#X obj 338 185 stripnote;
#X obj 338 229 mtof;
#X obj 338 273 t f b;
#X msg 387 316 0 \, 1 10 0 \, 0 100 20, f 18;
#X obj 387 347 hv.vline~;
#X obj 540 316 / 127;
#X obj 338 386 *~;
#X obj 338 423 *~;
#X obj 338 508 dac~;
#X obj 509 379 r vol @hv_param 0 0.1 0;
#X obj 338 466 *~;
#X obj 512 411 hsl 128 17 0 0.1 0 0 empty empty empty -2 -8 0 10 #191919 #e1e1e1 #e1e1e1 0 1;
#X obj 292 347 osc~;
#X obj 941 336 hv.osc~ saw;
#N canvas 0 50 450 300 poly8 1;
#X obj 726 183 inlet note_number;
#X obj 872 183 inlet velocity;
#X obj 726 252 poly 8;
#X obj 726 357 route 1 2 3 4 5 6 7 8;
#X obj 726 302 pack f f f;
#N canvas 0 50 450 300 voice 0;
#X obj 744 181 inlet unpack_data;
#X obj 744 221 unpack f f f;
#X obj 643 330 hv.osc~ sine;
#X obj 596 504 hv.osc~ saw;
#X obj 978 330 hv.osc~ square;
#X obj 752 386 mtof;
#X obj 752 430 t f b;
#X msg 1138 407 0 \, 1 10 0 \, 0 100 20, f 18;
#X obj 1138 438 hv.vline~;
#X obj 954 473 / 127;
#X obj 752 543 *~;
#X obj 752 580 *~;
#X obj 752 665 dac~;
#X obj 923 536 r vol @hv_param 0 0.1 0;
#X obj 752 623 *~;
#X obj 929 568 hsl 128 17 0 0.1 0 0 empty empty empty -2 -8 0 10 #191919 #e1e1e1 #e1e1e1 0 1;
#N canvas 0 22 450 300 envelope3 0;
#X obj 221 778 hv.vline~;
#X floatatom 398 762 5 0 0 0 - - - 0;
#X floatatom 425 788 5 0 0 0 - - - 0;
#X floatatom 452 762 5 0 0 0 - - - 0;
#X floatatom 313 199 5 0 0 0 - - - 0;
#X floatatom 276 317 5 0 0 0 - - - 0;
#X obj 381 402 -;
#X floatatom 398 446 5 0 0 0 - - - 0;
#X obj 381 281 t b f;
#X obj 272 520 spigot;
#X floatatom 272 597 5 0 0 0 - - - 0;
#X obj 381 480 > 0;
#X obj 272 555 abs;
#X floatatom 509 761 5 0 0 0 - - - 0;
#X msg 221 727 0 \, \$3 \$2 0 \, 0 \$5 \$4;
#X obj 221 670 pack f f f f f;
#X obj 398 727 unpack f f f f f;
#X floatatom 577 766 5 0 0 0 - - - 0;
#X obj 221 827 *~;
#X obj 235 164 inlet attack_time;
#X obj 276 359 inlet hold_time;
#X obj 253 281 inlet attack_level;
#X obj 330 597 inlet decay_time;
#X obj 221 899 outlet~ out;
#X obj 151 627 inlet bang;
#X connect 0 0 18 0;
#X connect 0 0 18 1;
#X connect 6 0 7 0;
#X connect 6 0 9 0;
#X connect 6 0 11 0;
#X connect 8 0 6 0;
#X connect 8 1 6 1;
#X connect 9 0 12 0;
#X connect 10 0 15 3;
#X connect 11 0 9 1;
#X connect 12 0 10 0;
#X connect 14 0 0 0;
#X connect 15 0 14 0;
#X connect 15 0 16 0;
#X connect 16 0 1 0;
#X connect 16 1 2 0;
#X connect 16 2 3 0;
#X connect 16 3 13 0;
#X connect 16 4 17 0;
#X connect 18 0 23 0;
#X connect 19 0 4 0;
#X connect 19 0 8 0;
#X connect 19 0 15 1;
#X connect 20 0 6 0;
#X connect 21 0 15 2;
#X connect 21 0 5 0;
#X connect 22 0 15 4;
#X connect 24 0 15 0;
#X restore 801 489 pd envelope3;
#X obj 890 88 hsl 128 17 0 1000 0 0 empty empty empty -2 -8 0 10 #191919 #e1e1e1 #e1e1e1 0 1;
#X obj 914 139 hsl 128 17 0 1 0 0 empty empty empty -2 -8 0 10 #191919 #e1e1e1 #e1e1e1 0 1;
#X obj 908 113 r attack_level_param @hv_param 0 1 1;
#X obj 884 61 r attack_time_param @hv_param 0 1000 0;
#X obj 942 191 hsl 128 17 0 1000 0 0 empty empty empty -2 -8 0 10 #191919 #e1e1e1 #e1e1e1 0 1;
#X obj 966 242 hsl 128 17 0 1000 0 0 empty empty empty -2 -8 0 10 #191919 #e1e1e1 #e1e1e1 0 1;
#X obj 936 165 r hold_time_param @hv_param 0 1000 0;
#X obj 960 216 r decay_time_param @hv_param 0 1000 0;
#X connect 0 0 1 0;
#X connect 1 0 5 0;
#X connect 1 1 9 0;
#X connect 3 0 10 0;
#X connect 5 0 6 0;
#X connect 6 0 3 0;
#X connect 6 1 16 0;
#X connect 7 0 8 0;
#X connect 9 0 11 1;
#X connect 10 0 11 0;
#X connect 11 0 14 0;
#X connect 13 0 15 0;
#X connect 14 0 12 0;
#X connect 14 0 12 1;
#X connect 15 0 14 1;
#X connect 16 0 10 1;
#X connect 17 0 16 1;
#X connect 18 0 16 2;
#X connect 19 0 18 0;
#X connect 20 0 17 0;
#X connect 21 0 16 3;
#X connect 22 0 16 4;
#X connect 23 0 21 0;
#X connect 24 0 22 0;
#X restore 417 485 pd voice;
#X obj 1028 310 hsl 128 17 0 0.1 0 0 empty empty empty -2 -8 0 10 #191919 #e1e1e1 #e1e1e1 0 1;
#X obj 1025 342 s vol @hv_param 0 0.1 0;
#X obj 1028 72 hsl 128 17 0 1000 0 0 empty empty empty -2 -8 0 10 #191919 #e1e1e1 #e1e1e1 0 1;
#X obj 1028 124 hsl 128 17 0 1 0 0 empty empty empty -2 -8 0 10 #191919 #e1e1e1 #e1e1e1 0 1;
#X obj 1028 183 hsl 128 17 0 1000 0 0 empty empty empty -2 -8 0 10 #191919 #e1e1e1 #e1e1e1 0 1;
#X obj 1028 239 hsl 128 17 0 1000 0 0 empty empty empty -2 -8 0 10 #191919 #e1e1e1 #e1e1e1 0 1;
#X obj 1025 95 s attack_time_param @hv_param 0 1000 0;
#X obj 1025 149 s attack_level_param @hv_param 0 1 1;
#X obj 1025 206 s hold_time_param @hv_param 0 1000 0;
#X obj 1025 261 s decay_time_param @hv_param 0 1000 0;
#N canvas 0 50 450 300 voice 0;
#X obj 744 181 inlet unpack_data;
#X obj 744 221 unpack f f f;
#X obj 643 330 hv.osc~ sine;
#X obj 596 504 hv.osc~ saw;
#X obj 978 330 hv.osc~ square;
#X obj 752 386 mtof;
#X obj 752 430 t f b;
#X msg 1138 407 0 \, 1 10 0 \, 0 100 20, f 18;
#X obj 1138 438 hv.vline~;
#X obj 954 473 / 127;
#X obj 752 543 *~;
#X obj 752 580 *~;
#X obj 752 665 dac~;
#X obj 923 536 r vol @hv_param 0 0.1 0;
#X obj 752 623 *~;
#X obj 929 568 hsl 128 17 0 0.1 0 0 empty empty empty -2 -8 0 10 #191919 #e1e1e1 #e1e1e1 0 1;
#N canvas 0 22 450 300 envelope3 0;
#X obj 221 778 hv.vline~;
#X floatatom 398 762 5 0 0 0 - - - 0;
#X floatatom 425 788 5 0 0 0 - - - 0;
#X floatatom 452 762 5 0 0 0 - - - 0;
#X floatatom 313 199 5 0 0 0 - - - 0;
#X floatatom 276 317 5 0 0 0 - - - 0;
#X obj 381 402 -;
#X floatatom 398 446 5 0 0 0 - - - 0;
#X obj 381 281 t b f;
#X obj 272 520 spigot;
#X floatatom 272 597 5 0 0 0 - - - 0;
#X obj 381 480 > 0;
#X obj 272 555 abs;
#X floatatom 509 761 5 0 0 0 - - - 0;
#X msg 221 727 0 \, \$3 \$2 0 \, 0 \$5 \$4;
#X obj 221 670 pack f f f f f;
#X obj 398 727 unpack f f f f f;
#X floatatom 577 766 5 0 0 0 - - - 0;
#X obj 221 827 *~;
#X obj 235 164 inlet attack_time;
#X obj 276 359 inlet hold_time;
#X obj 253 281 inlet attack_level;
#X obj 330 597 inlet decay_time;
#X obj 221 899 outlet~ out;
#X obj 151 627 inlet bang;
#X connect 0 0 18 0;
#X connect 0 0 18 1;
#X connect 6 0 7 0;
#X connect 6 0 9 0;
#X connect 6 0 11 0;
#X connect 8 0 6 0;
#X connect 8 1 6 1;
#X connect 9 0 12 0;
#X connect 10 0 15 3;
#X connect 11 0 9 1;
#X connect 12 0 10 0;
#X connect 14 0 0 0;
#X connect 15 0 14 0;
#X connect 15 0 16 0;
#X connect 16 0 1 0;
#X connect 16 1 2 0;
#X connect 16 2 3 0;
#X connect 16 3 13 0;
#X connect 16 4 17 0;
#X connect 18 0 23 0;
#X connect 19 0 4 0;
#X connect 19 0 8 0;
#X connect 19 0 15 1;
#X connect 20 0 6 0;
#X connect 21 0 15 2;
#X connect 21 0 5 0;
#X connect 22 0 15 4;
#X connect 24 0 15 0;
#X restore 801 489 pd envelope3;
#X obj 890 88 hsl 128 17 0 1000 0 0 empty empty empty -2 -8 0 10 #191919 #e1e1e1 #e1e1e1 0 1;
#X obj 914 139 hsl 128 17 0 1 0 0 empty empty empty -2 -8 0 10 #191919 #e1e1e1 #e1e1e1 0 1;
#X obj 908 113 r attack_level_param @hv_param 0 1 1;
#X obj 884 61 r attack_time_param @hv_param 0 1000 0;
#X obj 942 191 hsl 128 17 0 1000 0 0 empty empty empty -2 -8 0 10 #191919 #e1e1e1 #e1e1e1 0 1;
#X obj 966 242 hsl 128 17 0 1000 0 0 empty empty empty -2 -8 0 10 #191919 #e1e1e1 #e1e1e1 0 1;
#X obj 936 165 r hold_time_param @hv_param 0 1000 0;
#X obj 960 216 r decay_time_param @hv_param 0 1000 0;
#X connect 0 0 1 0;
#X connect 1 0 5 0;
#X connect 1 1 9 0;
#X connect 3 0 10 0;
#X connect 5 0 6 0;
#X connect 6 0 3 0;
#X connect 6 1 16 0;
#X connect 7 0 8 0;
#X connect 9 0 11 1;
#X connect 10 0 11 0;
#X connect 11 0 14 0;
#X connect 13 0 15 0;
#X connect 14 0 12 0;
#X connect 14 0 12 1;
#X connect 15 0 14 1;
#X connect 16 0 10 1;
#X connect 17 0 16 1;
#X connect 18 0 16 2;
#X connect 19 0 18 0;
#X connect 20 0 17 0;
#X connect 21 0 16 3;
#X connect 22 0 16 4;
#X connect 23 0 21 0;
#X connect 24 0 22 0;
#X restore 492 486 pd voice;
#N canvas 0 50 450 300 voice 0;
#X obj 744 181 inlet unpack_data;
#X obj 744 221 unpack f f f;
#X obj 643 330 hv.osc~ sine;
#X obj 596 504 hv.osc~ saw;
#X obj 978 330 hv.osc~ square;
#X obj 752 386 mtof;
#X obj 752 430 t f b;
#X msg 1138 407 0 \, 1 10 0 \, 0 100 20, f 18;
#X obj 1138 438 hv.vline~;
#X obj 954 473 / 127;
#X obj 752 543 *~;
#X obj 752 580 *~;
#X obj 752 665 dac~;
#X obj 923 536 r vol @hv_param 0 0.1 0;
#X obj 752 623 *~;
#X obj 929 568 hsl 128 17 0 0.1 0 0 empty empty empty -2 -8 0 10 #191919 #e1e1e1 #e1e1e1 0 1;
#N canvas 0 22 450 300 envelope3 0;
#X obj 221 778 hv.vline~;
#X floatatom 398 762 5 0 0 0 - - - 0;
#X floatatom 425 788 5 0 0 0 - - - 0;
#X floatatom 452 762 5 0 0 0 - - - 0;
#X floatatom 313 199 5 0 0 0 - - - 0;
#X floatatom 276 317 5 0 0 0 - - - 0;
#X obj 381 402 -;
#X floatatom 398 446 5 0 0 0 - - - 0;
#X obj 381 281 t b f;
#X obj 272 520 spigot;
#X floatatom 272 597 5 0 0 0 - - - 0;
#X obj 381 480 > 0;
#X obj 272 555 abs;
#X floatatom 509 761 5 0 0 0 - - - 0;
#X msg 221 727 0 \, \$3 \$2 0 \, 0 \$5 \$4;
#X obj 221 670 pack f f f f f;
#X obj 398 727 unpack f f f f f;
#X floatatom 577 766 5 0 0 0 - - - 0;
#X obj 221 827 *~;
#X obj 235 164 inlet attack_time;
#X obj 276 359 inlet hold_time;
#X obj 253 281 inlet attack_level;
#X obj 330 597 inlet decay_time;
#X obj 221 899 outlet~ out;
#X obj 151 627 inlet bang;
#X connect 0 0 18 0;
#X connect 0 0 18 1;
#X connect 6 0 7 0;
#X connect 6 0 9 0;
#X connect 6 0 11 0;
#X connect 8 0 6 0;
#X connect 8 1 6 1;
#X connect 9 0 12 0;
#X connect 10 0 15 3;
#X connect 11 0 9 1;
#X connect 12 0 10 0;
#X connect 14 0 0 0;
#X connect 15 0 14 0;
#X connect 15 0 16 0;
#X connect 16 0 1 0;
#X connect 16 1 2 0;
#X connect 16 2 3 0;
#X connect 16 3 13 0;
#X connect 16 4 17 0;
#X connect 18 0 23 0;
#X connect 19 0 4 0;
#X connect 19 0 8 0;
#X connect 19 0 15 1;
#X connect 20 0 6 0;
#X connect 21 0 15 2;
#X connect 21 0 5 0;
#X connect 22 0 15 4;
#X connect 24 0 15 0;
#X restore 801 489 pd envelope3;
#X obj 890 88 hsl 128 17 0 1000 0 0 empty empty empty -2 -8 0 10 #191919 #e1e1e1 #e1e1e1 0 1;
#X obj 914 139 hsl 128 17 0 1 0 0 empty empty empty -2 -8 0 10 #191919 #e1e1e1 #e1e1e1 0 1;
#X obj 908 113 r attack_level_param @hv_param 0 1 1;
#X obj 884 61 r attack_time_param @hv_param 0 1000 0;
#X obj 942 191 hsl 128 17 0 1000 0 0 empty empty empty -2 -8 0 10 #191919 #e1e1e1 #e1e1e1 0 1;
#X obj 966 242 hsl 128 17 0 1000 0 0 empty empty empty -2 -8 0 10 #191919 #e1e1e1 #e1e1e1 0 1;
#X obj 936 165 r hold_time_param @hv_param 0 1000 0;
#X obj 960 216 r decay_time_param @hv_param 0 1000 0;
#X connect 0 0 1 0;
#X connect 1 0 5 0;
#X connect 1 1 9 0;
#X connect 3 0 10 0;
#X connect 5 0 6 0;
#X connect 6 0 3 0;
#X connect 6 1 16 0;
#X connect 7 0 8 0;
#X connect 9 0 11 1;
#X connect 10 0 11 0;
#X connect 11 0 14 0;
#X connect 13 0 15 0;
#X connect 14 0 12 0;
#X connect 14 0 12 1;
#X connect 15 0 14 1;
#X connect 16 0 10 1;
#X connect 17 0 16 1;
#X connect 18 0 16 2;
#X connect 19 0 18 0;
#X connect 20 0 17 0;
#X connect 21 0 16 3;
#X connect 22 0 16 4;
#X connect 23 0 21 0;
#X connect 24 0 22 0;
#X restore 558 486 pd voice;
#N canvas 0 50 450 300 voice 0;
#X obj 744 181 inlet unpack_data;
#X obj 744 221 unpack f f f;
#X obj 643 330 hv.osc~ sine;
#X obj 596 504 hv.osc~ saw;
#X obj 978 330 hv.osc~ square;
#X obj 752 386 mtof;
#X obj 752 430 t f b;
#X msg 1138 407 0 \, 1 10 0 \, 0 100 20, f 18;
#X obj 1138 438 hv.vline~;
#X obj 954 473 / 127;
#X obj 752 543 *~;
#X obj 752 580 *~;
#X obj 752 665 dac~;
#X obj 923 536 r vol @hv_param 0 0.1 0;
#X obj 752 623 *~;
#X obj 929 568 hsl 128 17 0 0.1 0 0 empty empty empty -2 -8 0 10 #191919 #e1e1e1 #e1e1e1 0 1;
#N canvas 0 22 450 300 envelope3 0;
#X obj 221 778 hv.vline~;
#X floatatom 398 762 5 0 0 0 - - - 0;
#X floatatom 425 788 5 0 0 0 - - - 0;
#X floatatom 452 762 5 0 0 0 - - - 0;
#X floatatom 313 199 5 0 0 0 - - - 0;
#X floatatom 276 317 5 0 0 0 - - - 0;
#X obj 381 402 -;
#X floatatom 398 446 5 0 0 0 - - - 0;
#X obj 381 281 t b f;
#X obj 272 520 spigot;
#X floatatom 272 597 5 0 0 0 - - - 0;
#X obj 381 480 > 0;
#X obj 272 555 abs;
#X floatatom 509 761 5 0 0 0 - - - 0;
#X msg 221 727 0 \, \$3 \$2 0 \, 0 \$5 \$4;
#X obj 221 670 pack f f f f f;
#X obj 398 727 unpack f f f f f;
#X floatatom 577 766 5 0 0 0 - - - 0;
#X obj 221 827 *~;
#X obj 235 164 inlet attack_time;
#X obj 276 359 inlet hold_time;
#X obj 253 281 inlet attack_level;
#X obj 330 597 inlet decay_time;
#X obj 221 899 outlet~ out;
#X obj 151 627 inlet bang;
#X connect 0 0 18 0;
#X connect 0 0 18 1;
#X connect 6 0 7 0;
#X connect 6 0 9 0;
#X connect 6 0 11 0;
#X connect 8 0 6 0;
#X connect 8 1 6 1;
#X connect 9 0 12 0;
#X connect 10 0 15 3;
#X connect 11 0 9 1;
#X connect 12 0 10 0;
#X connect 14 0 0 0;
#X connect 15 0 14 0;
#X connect 15 0 16 0;
#X connect 16 0 1 0;
#X connect 16 1 2 0;
#X connect 16 2 3 0;
#X connect 16 3 13 0;
#X connect 16 4 17 0;
#X connect 18 0 23 0;
#X connect 19 0 4 0;
#X connect 19 0 8 0;
#X connect 19 0 15 1;
#X connect 20 0 6 0;
#X connect 21 0 15 2;
#X connect 21 0 5 0;
#X connect 22 0 15 4;
#X connect 24 0 15 0;
#X restore 801 489 pd envelope3;
#X obj 890 88 hsl 128 17 0 1000 0 0 empty empty empty -2 -8 0 10 #191919 #e1e1e1 #e1e1e1 0 1;
#X obj 914 139 hsl 128 17 0 1 0 0 empty empty empty -2 -8 0 10 #191919 #e1e1e1 #e1e1e1 0 1;
#X obj 908 113 r attack_level_param @hv_param 0 1 1;
#X obj 884 61 r attack_time_param @hv_param 0 1000 0;
#X obj 942 191 hsl 128 17 0 1000 0 0 empty empty empty -2 -8 0 10 #191919 #e1e1e1 #e1e1e1 0 1;
#X obj 966 242 hsl 128 17 0 1000 0 0 empty empty empty -2 -8 0 10 #191919 #e1e1e1 #e1e1e1 0 1;
#X obj 936 165 r hold_time_param @hv_param 0 1000 0;
#X obj 960 216 r decay_time_param @hv_param 0 1000 0;
#X connect 0 0 1 0;
#X connect 1 0 5 0;
#X connect 1 1 9 0;
#X connect 3 0 10 0;
#X connect 5 0 6 0;
#X connect 6 0 3 0;
#X connect 6 1 16 0;
#X connect 7 0 8 0;
#X connect 9 0 11 1;
#X connect 10 0 11 0;
#X connect 11 0 14 0;
#X connect 13 0 15 0;
#X connect 14 0 12 0;
#X connect 14 0 12 1;
#X connect 15 0 14 1;
#X connect 16 0 10 1;
#X connect 17 0 16 1;
#X connect 18 0 16 2;
#X connect 19 0 18 0;
#X connect 20 0 17 0;
#X connect 21 0 16 3;
#X connect 22 0 16 4;
#X connect 23 0 21 0;
#X connect 24 0 22 0;
#X restore 621 487 pd voice;
#N canvas 0 50 450 300 voice 0;
#X obj 744 181 inlet unpack_data;
#X obj 744 221 unpack f f f;
#X obj 643 330 hv.osc~ sine;
#X obj 596 504 hv.osc~ saw;
#X obj 978 330 hv.osc~ square;
#X obj 752 386 mtof;
#X obj 752 430 t f b;
#X msg 1138 407 0 \, 1 10 0 \, 0 100 20, f 18;
#X obj 1138 438 hv.vline~;
#X obj 954 473 / 127;
#X obj 752 543 *~;
#X obj 752 580 *~;
#X obj 752 665 dac~;
#X obj 923 536 r vol @hv_param 0 0.1 0;
#X obj 752 623 *~;
#X obj 929 568 hsl 128 17 0 0.1 0 0 empty empty empty -2 -8 0 10 #191919 #e1e1e1 #e1e1e1 0 1;
#N canvas 0 22 450 300 envelope3 0;
#X obj 221 778 hv.vline~;
#X floatatom 398 762 5 0 0 0 - - - 0;
#X floatatom 425 788 5 0 0 0 - - - 0;
#X floatatom 452 762 5 0 0 0 - - - 0;
#X floatatom 313 199 5 0 0 0 - - - 0;
#X floatatom 276 317 5 0 0 0 - - - 0;
#X obj 381 402 -;
#X floatatom 398 446 5 0 0 0 - - - 0;
#X obj 381 281 t b f;
#X obj 272 520 spigot;
#X floatatom 272 597 5 0 0 0 - - - 0;
#X obj 381 480 > 0;
#X obj 272 555 abs;
#X floatatom 509 761 5 0 0 0 - - - 0;
#X msg 221 727 0 \, \$3 \$2 0 \, 0 \$5 \$4;
#X obj 221 670 pack f f f f f;
#X obj 398 727 unpack f f f f f;
#X floatatom 577 766 5 0 0 0 - - - 0;
#X obj 221 827 *~;
#X obj 235 164 inlet attack_time;
#X obj 276 359 inlet hold_time;
#X obj 253 281 inlet attack_level;
#X obj 330 597 inlet decay_time;
#X obj 221 899 outlet~ out;
#X obj 151 627 inlet bang;
#X connect 0 0 18 0;
#X connect 0 0 18 1;
#X connect 6 0 7 0;
#X connect 6 0 9 0;
#X connect 6 0 11 0;
#X connect 8 0 6 0;
#X connect 8 1 6 1;
#X connect 9 0 12 0;
#X connect 10 0 15 3;
#X connect 11 0 9 1;
#X connect 12 0 10 0;
#X connect 14 0 0 0;
#X connect 15 0 14 0;
#X connect 15 0 16 0;
#X connect 16 0 1 0;
#X connect 16 1 2 0;
#X connect 16 2 3 0;
#X connect 16 3 13 0;
#X connect 16 4 17 0;
#X connect 18 0 23 0;
#X connect 19 0 4 0;
#X connect 19 0 8 0;
#X connect 19 0 15 1;
#X connect 20 0 6 0;
#X connect 21 0 15 2;
#X connect 21 0 5 0;
#X connect 22 0 15 4;
#X connect 24 0 15 0;
#X restore 801 489 pd envelope3;
#X obj 890 88 hsl 128 17 0 1000 0 0 empty empty empty -2 -8 0 10 #191919 #e1e1e1 #e1e1e1 0 1;
#X obj 914 139 hsl 128 17 0 1 0 0 empty empty empty -2 -8 0 10 #191919 #e1e1e1 #e1e1e1 0 1;
#X obj 908 113 r attack_level_param @hv_param 0 1 1;
#X obj 884 61 r attack_time_param @hv_param 0 1000 0;
#X obj 942 191 hsl 128 17 0 1000 0 0 empty empty empty -2 -8 0 10 #191919 #e1e1e1 #e1e1e1 0 1;
#X obj 966 242 hsl 128 17 0 1000 0 0 empty empty empty -2 -8 0 10 #191919 #e1e1e1 #e1e1e1 0 1;
#X obj 936 165 r hold_time_param @hv_param 0 1000 0;
#X obj 960 216 r decay_time_param @hv_param 0 1000 0;
#X connect 0 0 1 0;
#X connect 1 0 5 0;
#X connect 1 1 9 0;
#X connect 3 0 10 0;
#X connect 5 0 6 0;
#X connect 6 0 3 0;
#X connect 6 1 16 0;
#X connect 7 0 8 0;
#X connect 9 0 11 1;
#X connect 10 0 11 0;
#X connect 11 0 14 0;
#X connect 13 0 15 0;
#X connect 14 0 12 0;
#X connect 14 0 12 1;
#X connect 15 0 14 1;
#X connect 16 0 10 1;
#X connect 17 0 16 1;
#X connect 18 0 16 2;
#X connect 19 0 18 0;
#X connect 20 0 17 0;
#X connect 21 0 16 3;
#X connect 22 0 16 4;
#X connect 23 0 21 0;
#X connect 24 0 22 0;
#X restore 691 491 pd voice;
#N canvas 0 50 450 300 voice 0;
#X obj 744 181 inlet unpack_data;
#X obj 744 221 unpack f f f;
#X obj 643 330 hv.osc~ sine;
#X obj 596 504 hv.osc~ saw;
#X obj 978 330 hv.osc~ square;
#X obj 752 386 mtof;
#X obj 752 430 t f b;
#X msg 1138 407 0 \, 1 10 0 \, 0 100 20, f 18;
#X obj 1138 438 hv.vline~;
#X obj 954 473 / 127;
#X obj 752 543 *~;
#X obj 752 580 *~;
#X obj 752 665 dac~;
#X obj 923 536 r vol @hv_param 0 0.1 0;
#X obj 752 623 *~;
#X obj 929 568 hsl 128 17 0 0.1 0 0 empty empty empty -2 -8 0 10 #191919 #e1e1e1 #e1e1e1 0 1;
#N canvas 0 22 450 300 envelope3 0;
#X obj 221 778 hv.vline~;
#X floatatom 398 762 5 0 0 0 - - - 0;
#X floatatom 425 788 5 0 0 0 - - - 0;
#X floatatom 452 762 5 0 0 0 - - - 0;
#X floatatom 313 199 5 0 0 0 - - - 0;
#X floatatom 276 317 5 0 0 0 - - - 0;
#X obj 381 402 -;
#X floatatom 398 446 5 0 0 0 - - - 0;
#X obj 381 281 t b f;
#X obj 272 520 spigot;
#X floatatom 272 597 5 0 0 0 - - - 0;
#X obj 381 480 > 0;
#X obj 272 555 abs;
#X floatatom 509 761 5 0 0 0 - - - 0;
#X msg 221 727 0 \, \$3 \$2 0 \, 0 \$5 \$4;
#X obj 221 670 pack f f f f f;
#X obj 398 727 unpack f f f f f;
#X floatatom 577 766 5 0 0 0 - - - 0;
#X obj 221 827 *~;
#X obj 235 164 inlet attack_time;
#X obj 276 359 inlet hold_time;
#X obj 253 281 inlet attack_level;
#X obj 330 597 inlet decay_time;
#X obj 221 899 outlet~ out;
#X obj 151 627 inlet bang;
#X connect 0 0 18 0;
#X connect 0 0 18 1;
#X connect 6 0 7 0;
#X connect 6 0 9 0;
#X connect 6 0 11 0;
#X connect 8 0 6 0;
#X connect 8 1 6 1;
#X connect 9 0 12 0;
#X connect 10 0 15 3;
#X connect 11 0 9 1;
#X connect 12 0 10 0;
#X connect 14 0 0 0;
#X connect 15 0 14 0;
#X connect 15 0 16 0;
#X connect 16 0 1 0;
#X connect 16 1 2 0;
#X connect 16 2 3 0;
#X connect 16 3 13 0;
#X connect 16 4 17 0;
#X connect 18 0 23 0;
#X connect 19 0 4 0;
#X connect 19 0 8 0;
#X connect 19 0 15 1;
#X connect 20 0 6 0;
#X connect 21 0 15 2;
#X connect 21 0 5 0;
#X connect 22 0 15 4;
#X connect 24 0 15 0;
#X restore 801 489 pd envelope3;
#X obj 890 88 hsl 128 17 0 1000 0 0 empty empty empty -2 -8 0 10 #191919 #e1e1e1 #e1e1e1 0 1;
#X obj 914 139 hsl 128 17 0 1 0 0 empty empty empty -2 -8 0 10 #191919 #e1e1e1 #e1e1e1 0 1;
#X obj 908 113 r attack_level_param @hv_param 0 1 1;
#X obj 884 61 r attack_time_param @hv_param 0 1000 0;
#X obj 942 191 hsl 128 17 0 1000 0 0 empty empty empty -2 -8 0 10 #191919 #e1e1e1 #e1e1e1 0 1;
#X obj 966 242 hsl 128 17 0 1000 0 0 empty empty empty -2 -8 0 10 #191919 #e1e1e1 #e1e1e1 0 1;
#X obj 936 165 r hold_time_param @hv_param 0 1000 0;
#X obj 960 216 r decay_time_param @hv_param 0 1000 0;
#X connect 0 0 1 0;
#X connect 1 0 5 0;
#X connect 1 1 9 0;
#X connect 3 0 10 0;
#X connect 5 0 6 0;
#X connect 6 0 3 0;
#X connect 6 1 16 0;
#X connect 7 0 8 0;
#X connect 9 0 11 1;
#X connect 10 0 11 0;
#X connect 11 0 14 0;
#X connect 13 0 15 0;
#X connect 14 0 12 0;
#X connect 14 0 12 1;
#X connect 15 0 14 1;
#X connect 16 0 10 1;
#X connect 17 0 16 1;
#X connect 18 0 16 2;
#X connect 19 0 18 0;
#X connect 20 0 17 0;
#X connect 21 0 16 3;
#X connect 22 0 16 4;
#X connect 23 0 21 0;
#X connect 24 0 22 0;
#X restore 757 491 pd voice;
#N canvas 0 50 450 300 voice 0;
#X obj 744 181 inlet unpack_data;
#X obj 744 221 unpack f f f;
#X obj 643 330 hv.osc~ sine;
#X obj 596 504 hv.osc~ saw;
#X obj 978 330 hv.osc~ square;
#X obj 752 386 mtof;
#X obj 752 430 t f b;
#X msg 1138 407 0 \, 1 10 0 \, 0 100 20, f 18;
#X obj 1138 438 hv.vline~;
#X obj 954 473 / 127;
#X obj 752 543 *~;
#X obj 752 580 *~;
#X obj 752 665 dac~;
#X obj 923 536 r vol @hv_param 0 0.1 0;
#X obj 752 623 *~;
#X obj 929 568 hsl 128 17 0 0.1 0 0 empty empty empty -2 -8 0 10 #191919 #e1e1e1 #e1e1e1 0 1;
#N canvas 0 22 450 300 envelope3 0;
#X obj 221 778 hv.vline~;
#X floatatom 398 762 5 0 0 0 - - - 0;
#X floatatom 425 788 5 0 0 0 - - - 0;
#X floatatom 452 762 5 0 0 0 - - - 0;
#X floatatom 313 199 5 0 0 0 - - - 0;
#X floatatom 276 317 5 0 0 0 - - - 0;
#X obj 381 402 -;
#X floatatom 398 446 5 0 0 0 - - - 0;
#X obj 381 281 t b f;
#X obj 272 520 spigot;
#X floatatom 272 597 5 0 0 0 - - - 0;
#X obj 381 480 > 0;
#X obj 272 555 abs;
#X floatatom 509 761 5 0 0 0 - - - 0;
#X msg 221 727 0 \, \$3 \$2 0 \, 0 \$5 \$4;
#X obj 221 670 pack f f f f f;
#X obj 398 727 unpack f f f f f;
#X floatatom 577 766 5 0 0 0 - - - 0;
#X obj 221 827 *~;
#X obj 235 164 inlet attack_time;
#X obj 276 359 inlet hold_time;
#X obj 253 281 inlet attack_level;
#X obj 330 597 inlet decay_time;
#X obj 221 899 outlet~ out;
#X obj 151 627 inlet bang;
#X connect 0 0 18 0;
#X connect 0 0 18 1;
#X connect 6 0 7 0;
#X connect 6 0 9 0;
#X connect 6 0 11 0;
#X connect 8 0 6 0;
#X connect 8 1 6 1;
#X connect 9 0 12 0;
#X connect 10 0 15 3;
#X connect 11 0 9 1;
#X connect 12 0 10 0;
#X connect 14 0 0 0;
#X connect 15 0 14 0;
#X connect 15 0 16 0;
#X connect 16 0 1 0;
#X connect 16 1 2 0;
#X connect 16 2 3 0;
#X connect 16 3 13 0;
#X connect 16 4 17 0;
#X connect 18 0 23 0;
#X connect 19 0 4 0;
#X connect 19 0 8 0;
#X connect 19 0 15 1;
#X connect 20 0 6 0;
#X connect 21 0 15 2;
#X connect 21 0 5 0;
#X connect 22 0 15 4;
#X connect 24 0 15 0;
#X restore 801 489 pd envelope3;
#X obj 890 88 hsl 128 17 0 1000 0 0 empty empty empty -2 -8 0 10 #191919 #e1e1e1 #e1e1e1 0 1;
#X obj 914 139 hsl 128 17 0 1 0 0 empty empty empty -2 -8 0 10 #191919 #e1e1e1 #e1e1e1 0 1;
#X obj 908 113 r attack_level_param @hv_param 0 1 1;
#X obj 884 61 r attack_time_param @hv_param 0 1000 0;
#X obj 942 191 hsl 128 17 0 1000 0 0 empty empty empty -2 -8 0 10 #191919 #e1e1e1 #e1e1e1 0 1;
#X obj 966 242 hsl 128 17 0 1000 0 0 empty empty empty -2 -8 0 10 #191919 #e1e1e1 #e1e1e1 0 1;
#X obj 936 165 r hold_time_param @hv_param 0 1000 0;
#X obj 960 216 r decay_time_param @hv_param 0 1000 0;
#X connect 0 0 1 0;
#X connect 1 0 5 0;
#X connect 1 1 9 0;
#X connect 3 0 10 0;
#X connect 5 0 6 0;
#X connect 6 0 3 0;
#X connect 6 1 16 0;
#X connect 7 0 8 0;
#X connect 9 0 11 1;
#X connect 10 0 11 0;
#X connect 11 0 14 0;
#X connect 13 0 15 0;
#X connect 14 0 12 0;
#X connect 14 0 12 1;
#X connect 15 0 14 1;
#X connect 16 0 10 1;
#X connect 17 0 16 1;
#X connect 18 0 16 2;
#X connect 19 0 18 0;
#X connect 20 0 17 0;
#X connect 21 0 16 3;
#X connect 22 0 16 4;
#X connect 23 0 21 0;
#X connect 24 0 22 0;
#X restore 828 491 pd voice;
#N canvas 0 50 450 300 voice 0;
#X obj 744 181 inlet unpack_data;
#X obj 744 221 unpack f f f;
#X obj 643 330 hv.osc~ sine;
#X obj 596 504 hv.osc~ saw;
#X obj 978 330 hv.osc~ square;
#X obj 752 386 mtof;
#X obj 752 430 t f b;
#X msg 1138 407 0 \, 1 10 0 \, 0 100 20, f 18;
#X obj 1138 438 hv.vline~;
#X obj 954 473 / 127;
#X obj 752 543 *~;
#X obj 752 580 *~;
#X obj 752 665 dac~;
#X obj 923 536 r vol @hv_param 0 0.1 0;
#X obj 752 623 *~;
#X obj 929 568 hsl 128 17 0 0.1 0 0 empty empty empty -2 -8 0 10 #191919 #e1e1e1 #e1e1e1 0 1;
#N canvas 0 22 450 300 envelope3 0;
#X obj 221 778 hv.vline~;
#X floatatom 398 762 5 0 0 0 - - - 0;
#X floatatom 425 788 5 0 0 0 - - - 0;
#X floatatom 452 762 5 0 0 0 - - - 0;
#X floatatom 313 199 5 0 0 0 - - - 0;
#X floatatom 276 317 5 0 0 0 - - - 0;
#X obj 381 402 -;
#X floatatom 398 446 5 0 0 0 - - - 0;
#X obj 381 281 t b f;
#X obj 272 520 spigot;
#X floatatom 272 597 5 0 0 0 - - - 0;
#X obj 381 480 > 0;
#X obj 272 555 abs;
#X floatatom 509 761 5 0 0 0 - - - 0;
#X msg 221 727 0 \, \$3 \$2 0 \, 0 \$5 \$4;
#X obj 221 670 pack f f f f f;
#X obj 398 727 unpack f f f f f;
#X floatatom 577 766 5 0 0 0 - - - 0;
#X obj 221 827 *~;
#X obj 235 164 inlet attack_time;
#X obj 276 359 inlet hold_time;
#X obj 253 281 inlet attack_level;
#X obj 330 597 inlet decay_time;
#X obj 221 899 outlet~ out;
#X obj 151 627 inlet bang;
#X connect 0 0 18 0;
#X connect 0 0 18 1;
#X connect 6 0 7 0;
#X connect 6 0 9 0;
#X connect 6 0 11 0;
#X connect 8 0 6 0;
#X connect 8 1 6 1;
#X connect 9 0 12 0;
#X connect 10 0 15 3;
#X connect 11 0 9 1;
#X connect 12 0 10 0;
#X connect 14 0 0 0;
#X connect 15 0 14 0;
#X connect 15 0 16 0;
#X connect 16 0 1 0;
#X connect 16 1 2 0;
#X connect 16 2 3 0;
#X connect 16 3 13 0;
#X connect 16 4 17 0;
#X connect 18 0 23 0;
#X connect 19 0 4 0;
#X connect 19 0 8 0;
#X connect 19 0 15 1;
#X connect 20 0 6 0;
#X connect 21 0 15 2;
#X connect 21 0 5 0;
#X connect 22 0 15 4;
#X connect 24 0 15 0;
#X restore 801 489 pd envelope3;
#X obj 890 88 hsl 128 17 0 1000 0 0 empty empty empty -2 -8 0 10 #191919 #e1e1e1 #e1e1e1 0 1;
#X obj 914 139 hsl 128 17 0 1 0 0 empty empty empty -2 -8 0 10 #191919 #e1e1e1 #e1e1e1 0 1;
#X obj 908 113 r attack_level_param @hv_param 0 1 1;
#X obj 884 61 r attack_time_param @hv_param 0 1000 0;
#X obj 942 191 hsl 128 17 0 1000 0 0 empty empty empty -2 -8 0 10 #191919 #e1e1e1 #e1e1e1 0 1;
#X obj 966 242 hsl 128 17 0 1000 0 0 empty empty empty -2 -8 0 10 #191919 #e1e1e1 #e1e1e1 0 1;
#X obj 936 165 r hold_time_param @hv_param 0 1000 0;
#X obj 960 216 r decay_time_param @hv_param 0 1000 0;
#X connect 0 0 1 0;
#X connect 1 0 5 0;
#X connect 1 1 9 0;
#X connect 3 0 10 0;
#X connect 5 0 6 0;
#X connect 6 0 3 0;
#X connect 6 1 16 0;
#X connect 7 0 8 0;
#X connect 9 0 11 1;
#X connect 10 0 11 0;
#X connect 11 0 14 0;
#X connect 13 0 15 0;
#X connect 14 0 12 0;
#X connect 14 0 12 1;
#X connect 15 0 14 1;
#X connect 16 0 10 1;
#X connect 17 0 16 1;
#X connect 18 0 16 2;
#X connect 19 0 18 0;
#X connect 20 0 17 0;
#X connect 21 0 16 3;
#X connect 22 0 16 4;
#X connect 23 0 21 0;
#X connect 24 0 22 0;
#X restore 902 491 pd voice;
#X connect 0 0 2 0;
#X connect 1 0 2 1;
#X connect 2 0 4 0;
#X connect 2 1 4 1;
#X connect 2 2 4 2;
#X connect 3 0 5 0;
#X connect 3 1 16 0;
#X connect 3 2 17 0;
#X connect 3 3 18 0;
#X connect 3 4 19 0;
#X connect 3 5 20 0;
#X connect 3 6 21 0;
#X connect 3 7 22 0;
#X connect 4 0 3 0;
#X connect 6 0 7 0;
#X connect 8 0 12 0;
#X connect 9 0 13 0;
#X connect 10 0 14 0;
#X connect 11 0 15 0;
#X restore 754 210 pd poly8;
#X connect 0 0 1 0;
#X connect 0 0 15 0;
#X connect 0 1 1 1;
#X connect 0 1 15 1;
#X connect 1 0 2 0;
#X connect 1 1 6 0;
#X connect 2 0 3 0;
#X connect 3 0 13 0;
#X connect 3 1 4 0;
#X connect 4 0 5 0;
#X connect 5 0 7 1;
#X connect 6 0 8 1;
#X connect 7 0 8 0;
#X connect 8 0 11 0;
#X connect 10 0 12 0;
#X connect 11 0 9 0;
#X connect 11 0 9 1;
#X connect 13 0 7 0;
