#N canvas 827 239 527 327 12;
#X obj 93 44 adc~;
#X obj 229 759 dac~;
#X obj 67 233 lop~;
#X obj 139 233 hip~;
#X obj 215 233 lop~;
#X obj 287 233 hip~;
#X obj 338 165 hsl 128 17 20 40000 1 0 empty empty empty -2 -8 0 10 #191919 #e1e1e1 #e1e1e1 0 1;
#X obj 375 233 hsl 128 17 1e-05 16 1 0 empty empty empty -2 -8 0 10 #191919 #e1e1e1 #e1e1e1 0 1;
#X obj 375 287 hsl 128 17 1e-05 16 1 0 empty empty empty -2 -8 0 10 #191919 #e1e1e1 #e1e1e1 0 1;
#X obj 67 327 *~;
#X obj 139 327 *~;
#X obj 215 327 *~;
#X obj 287 327 *~;
#X floatatom 372 192 13 0 0 0 - - - 16;
#X floatatom 527 245 8 0 0 0 - - - 16;
#X floatatom 535 301 12 0 0 0 - - - 16;
#X obj 335 455 lop~;
#X obj 407 455 hip~;
#X obj 483 455 lop~;
#X obj 555 455 hip~;
#X obj 606 387 hsl 128 17 20 40000 1 0 empty empty empty -2 -8 0 10 #191919 #e1e1e1 #e1e1e1 0 1;
#X obj 643 455 hsl 128 17 1e-05 16 1 0 empty empty empty -2 -8 0 10 #191919 #e1e1e1 #e1e1e1 0 1;
#X obj 643 509 hsl 128 17 1e-05 16 1 0 empty empty empty -2 -8 0 10 #191919 #e1e1e1 #e1e1e1 0 1;
#X obj 335 549 *~;
#X obj 407 549 *~;
#X obj 483 549 *~;
#X obj 555 549 *~;
#X floatatom 640 414 13 0 0 0 - - - 16;
#X floatatom 658 480 8 0 0 0 - - - 16;
#X floatatom 662 535 9 0 0 0 - - - 16;
#X obj 62 108 *~;
#X obj 127 108 *~;
#X obj 206 54 hsl 128 19 0.04 4 1 0 empty empty empty -2 -8 0 10 #191919 #e1e1e1 #e1e1e1 0 1;
#X floatatom 235 104 10 0 0 0 - - - 12;
#X obj 275 673 hv.filter~ notch 4000 0.5;
#X obj 454 724 hv.filter~ notch 4000 0.5;
#X text 279 23 input gain;
#X text 487 171 cross freq 1;
#X text 611 243 low gain;
#X text 611 300 hi gain;
#X text 748 413 cross freq 2;
#X text 790 454 hi_low gain;
#X text 790 497 hi_hi gain;
#X msg 502 -36 0.061069;
#X obj 502 -5 s input_gain;
#X obj 603 -5 s cross_freq_1;
#X msg 603 -36 7250.77;
#X obj 712 -5 s low_gain;
#X msg 712 -30 10.1371;
#X obj 802 -5 s hi_gain;
#X msg 802 -30 6.70291;
#X obj 880 -5 s cross_freq_2;
#X msg 880 -33 4308.59;
#X obj 984 -5 s hi_low_gain;
#X msg 984 -38 0.16;
#X obj 1078 -5 s hi_hi_gain;
#X msg 1078 -37 1.6;
#X obj 1286 -398 loadbang;
#X obj 805 -232 bng 25 250 50 0 empty empty empty 17 7 0 10 #191919 #e1e1e1 #e1e1e1;
#X obj 665 599 hsl 128 17 20 40000 1 0 empty empty empty -2 -8 0 10 #191919 #e1e1e1 #e1e1e1 0 1;
#X obj 668 689 hsl 128 17 0.01 16 0 0 empty empty empty -2 -8 0 10 #191919 #e1e1e1 #e1e1e1 0 1;
#X floatatom 697 626 13 0 0 0 - - - 16;
#X floatatom 687 715 7 0 0 0 - - - 16;
#X obj 760 -117 t b b b b b b b b b;
#X obj 1170 -5 s notch_freq;
#X obj 1267 -5 s notch_q;
#X msg 1170 -38 4000;
#X msg 1267 -38 0.5;
#X obj 1009 -216 s input_gain;
#X obj 1110 -216 s cross_freq_1;
#X obj 1219 -216 s low_gain;
#X obj 1309 -216 s hi_gain;
#X obj 1387 -216 s cross_freq_2;
#X obj 1491 -216 s hi_low_gain;
#X msg 1491 -249 0.16;
#X obj 1585 -216 s hi_hi_gain;
#X obj 1267 -328 t b b b b b b b b b;
#X obj 1677 -216 s notch_freq;
#X obj 1774 -216 s notch_q;
#X msg 1009 -247 0.0621888;
#X msg 1110 -247 40000;
#X msg 1219 -241 16;
#X msg 1309 -241 0.366799;
#X msg 1387 -244 400;
#X msg 1677 -249 40000;
#X msg 1774 -249 16;
#X obj 1162 -385 bng 25 250 50 0 empty empty empty 17 7 0 10 #191919 #e1e1e1 #e1e1e1;
#X msg 1585 -248 0.16;
#X text 1330 -354 init;
#X text 790 -150 master hi boost;
#X obj 1401 4 s input_gain;
#X obj 1502 4 s cross_freq_1;
#X obj 1611 4 s low_gain;
#X obj 1701 4 s hi_gain;
#X obj 1779 4 s cross_freq_2;
#X msg 1779 -24 4308.59;
#X obj 1883 4 s hi_low_gain;
#X msg 1883 -29 0.16;
#X obj 1977 4 s hi_hi_gain;
#X obj 1659 -108 t b b b b b b b b b;
#X obj 2069 4 s notch_freq;
#X obj 2166 4 s notch_q;
#X msg 2166 -29 0.5;
#X msg 1401 -27 3.7343;
#X msg 1502 -27 9734.06;
#X msg 1611 -21 0.16;
#X msg 1701 -21 16;
#X msg 1977 -28 16;
#X msg 2069 -29 10836.7;
#X text 1701 -136 clang guitar;
#X obj 1657 -175 bng 25 250 50 0 empty empty empty 17 7 0 10 #191919 #e1e1e1 #e1e1e1;
#X obj 203 -5 r input_gain @hv_param 0.04 4 0.0621888;
#X obj 335 123 r cross_freq_1 @hv_param 20 40000 40000;
#X obj 626 192 r low_gain @hv_param 1e-05 16 16;
#X obj 662 272 r hi_gain @hv_param 1e-05 16 0.366799;
#X obj 733 349 r cross_freq_2 @hv_param 20 40000 400;
#X obj 902 427 r hi_low_gain @hv_param 1e-05 16 0.16;
#X obj 912 468 r hi_hi_gain @hv_param 1e-05 16 0.16;
#X obj 662 568 r notch_freq @hv_param 20 40000 40000;
#X obj 665 655 r notch_q @hv_param 0.01 16 16;
#X connect 0 0 30 0;
#X connect 0 1 31 0;
#X connect 2 0 9 0;
#X connect 3 0 10 0;
#X connect 4 0 11 0;
#X connect 5 0 12 0;
#X connect 6 0 2 1;
#X connect 6 0 3 1;
#X connect 6 0 4 1;
#X connect 6 0 5 1;
#X connect 6 0 13 0;
#X connect 7 0 9 1;
#X connect 7 0 11 1;
#X connect 7 0 14 0;
#X connect 8 0 10 1;
#X connect 8 0 12 1;
#X connect 8 0 15 0;
#X connect 9 0 1 0;
#X connect 10 0 16 0;
#X connect 10 0 17 0;
#X connect 11 0 1 1;
#X connect 12 0 18 0;
#X connect 12 0 19 0;
#X connect 16 0 23 0;
#X connect 17 0 24 0;
#X connect 18 0 25 0;
#X connect 19 0 26 0;
#X connect 20 0 16 1;
#X connect 20 0 17 1;
#X connect 20 0 18 1;
#X connect 20 0 19 1;
#X connect 20 0 27 0;
#X connect 21 0 23 1;
#X connect 21 0 25 1;
#X connect 21 0 28 0;
#X connect 22 0 24 1;
#X connect 22 0 26 1;
#X connect 22 0 29 0;
#X connect 23 0 34 0;
#X connect 24 0 34 0;
#X connect 25 0 35 0;
#X connect 26 0 35 0;
#X connect 30 0 2 0;
#X connect 30 0 3 0;
#X connect 31 0 4 0;
#X connect 31 0 5 0;
#X connect 32 0 30 1;
#X connect 32 0 31 1;
#X connect 32 0 33 0;
#X connect 34 0 1 0;
#X connect 35 0 1 1;
#X connect 43 0 44 0;
#X connect 46 0 45 0;
#X connect 48 0 47 0;
#X connect 50 0 49 0;
#X connect 52 0 51 0;
#X connect 54 0 53 0;
#X connect 56 0 55 0;
#X connect 58 0 63 0;
#X connect 59 0 34 1;
#X connect 59 0 35 1;
#X connect 59 0 61 0;
#X connect 60 0 35 2;
#X connect 60 0 34 2;
#X connect 60 0 62 0;
#X connect 63 0 43 0;
#X connect 63 1 46 0;
#X connect 63 2 48 0;
#X connect 63 3 50 0;
#X connect 63 4 52 0;
#X connect 63 5 54 0;
#X connect 63 6 56 0;
#X connect 63 7 66 0;
#X connect 63 8 67 0;
#X connect 66 0 64 0;
#X connect 67 0 65 0;
#X connect 74 0 73 0;
#X connect 76 0 79 0;
#X connect 76 1 80 0;
#X connect 76 2 81 0;
#X connect 76 3 82 0;
#X connect 76 4 83 0;
#X connect 76 5 74 0;
#X connect 76 6 87 0;
#X connect 76 7 84 0;
#X connect 76 8 85 0;
#X connect 79 0 68 0;
#X connect 80 0 69 0;
#X connect 81 0 70 0;
#X connect 82 0 71 0;
#X connect 83 0 72 0;
#X connect 84 0 77 0;
#X connect 85 0 78 0;
#X connect 86 0 76 0;
#X connect 87 0 75 0;
#X connect 95 0 94 0;
#X connect 97 0 96 0;
#X connect 99 0 103 0;
#X connect 99 1 104 0;
#X connect 99 2 105 0;
#X connect 99 3 106 0;
#X connect 99 4 95 0;
#X connect 99 5 97 0;
#X connect 99 6 107 0;
#X connect 99 7 108 0;
#X connect 99 8 102 0;
#X connect 102 0 101 0;
#X connect 103 0 90 0;
#X connect 104 0 91 0;
#X connect 105 0 92 0;
#X connect 106 0 93 0;
#X connect 107 0 98 0;
#X connect 108 0 100 0;
#X connect 110 0 99 0;
#X connect 111 0 32 0;
#X connect 112 0 6 0;
#X connect 113 0 7 0;
#X connect 114 0 8 0;
#X connect 115 0 20 0;
#X connect 116 0 21 0;
#X connect 117 0 22 0;
#X connect 118 0 59 0;
#X connect 119 0 60 0;
