#N canvas 827 239 527 327 12;
#X text 1 85 Write a sample to an array;
#X text 1 106 read from the array randomly;
#X text 1 130 How fast do we read?;
#X text 1 155 Control pitch;
#X text 1 177 How do we make grains?;
#X text 1 203 UI;
#X text 1 228 post processing;
#X obj 380 124 bng 25 250 50 0 empty empty empty 17 7 0 10 #191919 #e1e1e1 #e1e1e1;
#X obj 380 178 openpanel;
#X text 420 145 Write a sample to an array;
#X text 466 177 returns a file directory;
#X msg 380 227 read -resize \$1 GRAINSAMPLE;
#N canvas 0 0 450 250 (subpatch) 0;
#X array GRAINSAMPLE 2.60529e+06 float 4;
#X coords 0 1 2.60529e+06 -1 280 144 1;
#X restore 519 321 graph;
#X obj 380 278 soundfiler;
#X text 466 277 gives you data about the sample \, like how many samples are in it;
#X floatatom 380 321 12 0 0 0 - - - 12;
#X obj 231 348 phasor~;
#X obj 231 398 s2f~;
#X connect 7 0 8 0;
#X connect 8 0 11 0;
#X connect 11 0 13 0;
#X connect 13 0 15 0;
